<?xml version="1.0" standalone="no"?>
<!DOCTYPE svg PUBLIC "-//W3C//DTD SVG 20010904//EN"
 "http://www.w3.org/TR/2001/REC-SVG-20010904/DTD/svg10.dtd">
<svg version="1.0" xmlns="http://www.w3.org/2000/svg"
 width="512.000000pt" height="512.000000pt" viewBox="0 0 512.000000 512.000000"
 preserveAspectRatio="xMidYMid meet">
<metadata>
Created by potrace 1.14, written by Peter Selinger 2001-2017
</metadata>
<g transform="translate(0.000000,512.000000) scale(0.100000,-0.100000)"
fill="#000000" stroke="none">
<path d="M1866 5105 c-70 -38 -167 -192 -367 -585 -40 -80 -99 -186 -130 -235
-126 -201 -223 -412 -255 -557 -2 -10 -6 -28 -10 -40 -6 -28 -9 -44 -19 -128
-26 -212 6 -412 83 -519 l31 -43 -46 -42 c-25 -22 -56 -57 -68 -76 -21 -34
-27 -36 -105 -48 -261 -38 -464 -254 -487 -516 -28 -331 257 -590 584 -532
l42 8 11 -42 c15 -56 15 -65 2 -130 -6 -30 -14 -68 -17 -85 -8 -42 -17 -187
-18 -265 0 -63 12 -220 18 -230 2 -3 6 -23 9 -44 12 -74 67 -221 122 -323 72
-135 83 -167 85 -260 2 -93 20 -169 56 -235 43 -79 108 -117 263 -153 83 -20
285 -28 365 -15 28 4 73 11 100 14 28 4 70 12 95 18 25 5 59 12 75 16 17 3
237 5 490 5 458 0 461 0 600 -27 256 -49 463 -41 640 25 132 49 185 148 199
367 6 90 9 97 76 231 68 135 113 251 125 321 3 19 8 42 10 50 18 63 25 295 12
425 -22 230 -88 432 -237 722 -74 144 -78 156 -74 205 11 131 58 264 183 518
159 321 225 487 275 687 32 127 35 150 43 263 14 229 -75 379 -260 439 -191
62 -379 40 -506 -60 -13 -11 -27 -19 -31 -19 -13 0 -65 128 -125 305 -32 94
-62 174 -67 180 -4 5 -8 15 -8 23 0 8 -20 56 -45 107 -46 95 -93 149 -141 161
-49 12 -149 -32 -405 -180 -20 -12 -70 -39 -110 -62 l-74 -40 -202 1 -202 1
-58 65 c-88 98 -223 232 -268 266 -94 72 -201 100 -259 68z"/>
</g>
</svg>
